<svg xmlns="http://www.w3.org/2000/svg" version="1.1" xmlns:xlink="http://www.w3.org/1999/xlink" xmlns:svgjs="http://svgjs.dev/svgjs" width="2000" height="633" viewBox="0 0 2000 633"><g transform="matrix(1,0,0,1,-2.462184873949809,-1.9942300884957262)"><svg viewBox="0 0 357 113" data-background-color="#ebe3d6" preserveAspectRatio="xMidYMid meet" height="633" width="2000" xmlns="http://www.w3.org/2000/svg" xmlns:xlink="http://www.w3.org/1999/xlink"><g id="tight-bounds" transform="matrix(1,0,0,1,0.43950000000003797,0.35600000000002296)"><svg viewBox="0 0 356.12052 112.28765129526123" height="112.28765129526123" width="356.12052"><g><svg viewBox="0 0 356.12052 112.28765129526123" height="112.28765129526123" width="356.12052"><g><svg viewBox="0 0 356.12052 112.28765129526123" height="112.28765129526123" width="356.12052"><g><path d="M0 112.288v-112.288h356.121v112.288z" fill="#facc15" stroke="transparent" stroke-width="0" rx="0%" data-fill-palette-color="tertiary"></path><path d="M3.283 109.004v-105.721h349.554v105.721z" fill="#1e3a8a" stroke="transparent" stroke-width="0" rx="0%" data-fill-palette-color="quaternary"></path><path d="M9.85 102.438v-92.588h336.421v92.588z" fill="#facc15" stroke="transparent" stroke-width="0" data-fill-palette-color="tertiary"></path></g><g transform="matrix(1,0,0,1,19.69974,19.69974)" id="textblocktransform"><svg viewBox="0 0 316.72104 72.88817129526123" height="72.88817129526123" width="316.72104" id="textblock"><g><svg viewBox="0 0 316.72104 72.88817129526123" height="72.88817129526123" width="316.72104"><g transform="matrix(1,0,0,1,0,0)"><svg width="316.72104" viewBox="1.9 -36.45 205.73 47.35" height="72.88817129526123" data-palette-color="#1e3a8a"><path d="M10.9 0.6L10.9 0.6Q7.05 0.6 4.48-0.78 1.9-2.15 1.9-4.75L1.9-4.75Q1.9-6.2 2.78-7.1 3.65-8 5.05-8L5.05-8Q5.95-8 6.53-7.53 7.1-7.05 7.1-6.85L7.1-6.85Q7.1-6.7 6.53-6.18 5.95-5.65 5.95-4.5L5.95-4.5Q5.95-3.1 7.28-2.18 8.6-1.25 11.3-1.25L11.3-1.25Q13.65-1.25 14.98-2.27 16.3-3.3 16.3-5.15L16.3-5.15Q16.3-6.65 15.33-7.48 14.35-8.3 12.83-8.8 11.3-9.3 9.58-9.8 7.85-10.3 6.3-11.05 4.75-11.8 3.78-13.13 2.8-14.45 2.8-16.65L2.8-16.65Q2.8-18.9 4.15-20.35 5.5-21.8 7.6-22.53 9.7-23.25 11.85-23.25L11.85-23.25Q13.7-23.25 15.35-22.73 17-22.2 18.07-21.15 19.15-20.1 19.15-18.5L19.15-18.5Q19.15-17.25 18.35-16.25 17.55-15.25 16.15-15.25L16.15-15.25Q15.25-15.25 14.68-15.73 14.1-16.2 14.1-16.4L14.1-16.4Q14.1-16.5 14.48-16.78 14.85-17.05 15.2-17.53 15.55-18 15.55-18.75L15.55-18.75Q15.45-20.2 14.15-20.9 12.85-21.6 11.25-21.6L11.25-21.6Q9.5-21.6 8-20.75 6.5-19.9 6.5-18.3L6.5-18.3Q6.5-16.85 7.13-16.05 7.75-15.25 9.13-14.68 10.5-14.1 12.7-13.4L12.7-13.4Q14.9-12.7 16.57-11.95 18.25-11.2 19.18-9.98 20.1-8.75 20.1-6.65L20.1-6.65Q20.1-4.55 18.9-2.9 17.7-1.25 15.63-0.33 13.55 0.6 10.9 0.6ZM24.1 0.15L24.1 0.15Q23.7 0.15 23.5-0.18 23.3-0.5 23.3-0.85L23.3-0.85Q23.35-1.6 23.67-1.68 24-1.75 24.45-1.75L24.45-1.75Q25.85-1.75 26.37-2.23 26.9-2.7 26.97-3.5 27.05-4.3 27.05-5.15L27.05-5.15 27.05-29.55Q27.05-30.45 26.97-31.23 26.9-32 26.4-32.48 25.9-32.95 24.5-32.95L24.5-32.95Q24.05-32.95 23.67-33.08 23.3-33.2 23.3-33.95L23.3-33.95Q23.3-34.7 24.1-34.85L24.1-34.85Q26.4-35.2 27.62-35.55 28.85-35.9 29.5-36.18 30.15-36.45 30.65-36.45L30.65-36.45Q31.05-36.45 31.32-36.27 31.6-36.1 31.6-35.5L31.6-35.5 31.6-19.4 31.7-19.4Q32.7-20.35 33.75-21.23 34.8-22.1 36.22-22.68 37.65-23.25 39.75-23.25L39.75-23.25Q43.15-23.25 45.15-21.2 47.15-19.15 47.15-15.8L47.15-15.8 47.15-5.15Q47.15-4.3 47.22-3.5 47.3-2.7 47.82-2.23 48.35-1.75 49.7-1.75L49.7-1.75Q50.2-1.75 50.5-1.68 50.8-1.6 50.85-0.85L50.85-0.85Q50.85-0.5 50.67-0.18 50.5 0.15 50.1 0.15L50.1 0.15Q48.65 0.05 47.4 0.03 46.15 0 44.85 0L44.85 0Q43.5 0 42.3 0.03 41.1 0.05 39.65 0.15L39.65 0.15Q39.25 0.15 39.05-0.18 38.85-0.5 38.85-0.85L38.85-0.85Q38.9-1.6 39.2-1.68 39.5-1.75 40-1.75L40-1.75Q41.4-1.75 41.92-2.23 42.45-2.7 42.5-3.5 42.55-4.3 42.55-5.15L42.55-5.15 42.55-15.75Q42.55-18.25 41.05-19.38 39.55-20.5 37.8-20.5L37.8-20.5Q36.1-20.5 34.8-19.88 33.5-19.25 32.7-18.45 31.9-17.65 31.6-17.05L31.6-17.05 31.6-5.15Q31.6-4.3 31.67-3.5 31.75-2.7 32.27-2.23 32.8-1.75 34.15-1.75L34.15-1.75Q34.65-1.75 34.95-1.68 35.25-1.6 35.3-0.85L35.3-0.85Q35.3-0.5 35.12-0.18 34.95 0.15 34.55 0.15L34.55 0.15Q33.1 0.05 31.85 0.03 30.6 0 29.3 0L29.3 0Q27.95 0 26.75 0.03 25.55 0.05 24.1 0.15ZM65.09 0.6L65.09 0.6Q61.6 0.6 58.97-1.05 56.35-2.7 54.9-5.35 53.45-8 53.45-11L53.45-11Q53.45-13.95 54.5-16.25 55.55-18.55 57.27-20.1 59-21.65 61.05-22.45 63.1-23.25 65.09-23.25L65.09-23.25Q68.59-23.25 71.22-21.6 73.84-19.95 75.3-17.3 76.75-14.65 76.75-11.65L76.75-11.65Q76.75-8.7 75.67-6.4 74.59-4.1 72.87-2.55 71.15-1 69.09-0.2 67.05 0.6 65.09 0.6ZM65.09-1.25L65.09-1.25Q67.55-1.25 68.97-2.7 70.4-4.15 71.02-6.53 71.65-8.9 71.65-11.65L71.65-11.65Q71.65-14.3 71-16.5 70.34-18.7 68.9-20.05 67.45-21.4 65.09-21.4L65.09-21.4Q62.65-21.4 61.2-19.98 59.75-18.55 59.15-16.23 58.55-13.9 58.55-11.1L58.55-11.1Q58.55-8.5 59.17-6.25 59.8-4 61.25-2.63 62.7-1.25 65.09-1.25ZM80.44 10.4L80.44 10.4Q80.09 10.4 79.87 10.08 79.64 9.75 79.64 9.4L79.64 9.4Q79.69 8.65 80.02 8.58 80.34 8.5 80.79 8.5L80.79 8.5Q82.14 8.5 82.67 8.03 83.19 7.55 83.29 6.75 83.39 5.95 83.39 5.1L83.39 5.1 83.39-16.6Q83.39-17.5 83.32-18.28 83.24-19.05 82.74-19.53 82.24-20 80.84-20L80.84-20Q80.39-20 80.02-20.13 79.64-20.25 79.64-21L79.64-21Q79.64-21.75 80.44-21.9L80.44-21.9Q82.74-22.25 83.97-22.6 85.19-22.95 85.82-23.2 86.44-23.45 86.94-23.5L86.94-23.5Q87.34-23.55 87.62-23.35 87.89-23.15 87.89-22.55L87.89-22.55 87.89-20.15 88.04-20.15Q89.44-21.45 91.39-22.35 93.34-23.25 95.14-23.25L95.14-23.25Q98.19-23.25 100.54-21.75 102.89-20.25 104.24-17.57 105.59-14.9 105.59-11.35L105.59-11.35Q105.59-7.75 103.94-5.05 102.29-2.35 99.69-0.88 97.09 0.6 94.14 0.6L94.14 0.6Q91.89 0.6 90.52 0.13 89.14-0.35 88.14-0.95L88.14-0.95 87.94-0.95 87.94 5.1Q87.94 5.95 88.04 6.75 88.14 7.55 88.69 8.03 89.24 8.5 90.54 8.5L90.54 8.5Q90.99 8.5 91.32 8.58 91.64 8.65 91.69 9.4L91.69 9.4Q91.69 9.75 91.49 10.08 91.29 10.4 90.89 10.4L90.89 10.4Q89.44 10.3 88.22 10.28 86.99 10.25 85.64 10.25L85.64 10.25Q84.29 10.25 83.09 10.28 81.89 10.3 80.44 10.4ZM93.74-1.1L93.74-1.1Q95.69-1.1 96.99-2.08 98.29-3.05 99.07-4.58 99.84-6.1 100.17-7.88 100.49-9.65 100.49-11.2L100.49-11.2Q100.49-13.55 99.77-15.73 99.04-17.9 97.47-19.33 95.89-20.75 93.34-20.75L93.34-20.75Q91.44-20.75 90.19-19.98 88.94-19.2 87.94-18.15L87.94-18.15 87.94-4.75Q88.49-3.45 89.97-2.27 91.44-1.1 93.74-1.1ZM121.44 0.6L121.44 0.6Q117.59 0.6 114.97-1.05 112.34-2.7 111.04-5.45 109.74-8.2 109.74-11.45L109.74-11.45Q109.74-13.65 110.52-15.73 111.29-17.8 112.74-19.53 114.19-21.25 116.24-22.25 118.29-23.25 120.89-23.25L120.89-23.25Q125.49-23.25 127.82-20.88 130.14-18.5 130.49-14.85L130.49-14.85Q130.49-13.1 129.52-12.55 128.54-12 126.99-12L126.99-12 114.84-12Q114.84-9.1 115.64-6.83 116.44-4.55 118.17-3.23 119.89-1.9 122.74-1.9L122.74-1.9Q124.84-1.9 126.34-2.8 127.84-3.7 129.24-5.95L129.24-5.95Q129.64-6.45 130.34-6L130.34-6Q130.74-5.8 130.84-5.38 130.94-4.95 130.74-4.65L130.74-4.65Q129.19-2.2 126.84-0.8 124.49 0.6 121.44 0.6ZM114.84-13.9L114.84-13.9 122.99-13.9Q124.19-13.9 124.92-14.38 125.64-14.85 125.69-16L125.69-16Q125.69-18.15 124.52-19.83 123.34-21.5 120.89-21.5L120.89-21.5Q118.39-21.5 116.72-19.5 115.04-17.5 114.84-13.9ZM141.19 0.6L141.19 0.6Q138.14 0.6 136.31-1.15 134.49-2.9 134.49-5.35L134.49-5.35Q134.49-7.9 135.81-9.35 137.14-10.8 139.31-11.5 141.49-12.2 144.06-12.45 146.64-12.7 149.09-12.85L149.09-12.85 149.09-16.8Q149.09-19.15 147.91-20.48 146.74-21.8 143.94-21.8L143.94-21.8Q142.54-21.8 141.31-20.9 140.09-20 140.09-18.3L140.09-18.3Q140.09-17.5 140.49-16.95 140.89-16.4 141.29-16.1 141.69-15.8 141.69-15.7L141.69-15.7Q141.69-15.5 141.11-14.98 140.54-14.45 139.54-14.45L139.54-14.45Q137.99-14.45 137.14-15.6 136.29-16.75 136.29-18.15L136.29-18.15Q136.29-20.05 137.46-21.15 138.64-22.25 140.49-22.75 142.34-23.25 144.24-23.25L144.24-23.25Q146.49-23.25 148.61-22.7 150.74-22.15 152.11-20.6 153.49-19.05 153.49-15.95L153.49-15.95 153.49-4.3Q153.54-3.8 153.74-3.1 153.94-2.4 154.51-1.88 155.09-1.35 156.09-1.35L156.09-1.35Q156.44-1.35 156.64-1.23 156.84-1.1 156.84-0.55L156.84-0.55Q156.84-0.1 156.34 0.15 155.84 0.4 155.19 0.5 154.54 0.6 154.09 0.6L154.09 0.6Q152.24 0.6 150.79-0.48 149.34-1.55 149.09-3.45L149.09-3.45Q147.99-1.45 145.81-0.43 143.64 0.6 141.19 0.6ZM142.79-2.1L142.79-2.1Q144.49-2.1 145.91-2.95 147.34-3.8 148.21-5.28 149.09-6.75 149.09-8.55L149.09-8.55 149.09-11.4Q143.94-11.05 141.74-9.75 139.54-8.45 139.54-5.5L139.54-5.5Q139.54-2.1 142.79-2.1ZM168.74 0.6L168.74 0.6Q164.89 0.6 162.31-0.78 159.74-2.15 159.74-4.75L159.74-4.75Q159.74-6.2 160.61-7.1 161.49-8 162.89-8L162.89-8Q163.79-8 164.36-7.53 164.94-7.05 164.94-6.85L164.94-6.85Q164.94-6.7 164.36-6.18 163.79-5.65 163.79-4.5L163.79-4.5Q163.79-3.1 165.11-2.18 166.44-1.25 169.14-1.25L169.14-1.25Q171.49-1.25 172.81-2.27 174.14-3.3 174.14-5.15L174.14-5.15Q174.14-6.65 173.16-7.48 172.19-8.3 170.66-8.8 169.14-9.3 167.41-9.8 165.69-10.3 164.14-11.05 162.59-11.8 161.61-13.13 160.64-14.45 160.64-16.65L160.64-16.65Q160.64-18.9 161.99-20.35 163.34-21.8 165.44-22.53 167.54-23.25 169.69-23.25L169.69-23.25Q171.54-23.25 173.19-22.73 174.84-22.2 175.91-21.15 176.99-20.1 176.99-18.5L176.99-18.5Q176.99-17.25 176.19-16.25 175.39-15.25 173.99-15.25L173.99-15.25Q173.09-15.25 172.51-15.73 171.94-16.2 171.94-16.4L171.94-16.4Q171.94-16.5 172.31-16.78 172.69-17.05 173.04-17.53 173.39-18 173.39-18.75L173.39-18.75Q173.29-20.2 171.99-20.9 170.69-21.6 169.09-21.6L169.09-21.6Q167.34-21.6 165.84-20.75 164.34-19.9 164.34-18.3L164.34-18.3Q164.34-16.85 164.96-16.05 165.59-15.25 166.96-14.68 168.34-14.1 170.54-13.4L170.54-13.4Q172.74-12.7 174.41-11.95 176.09-11.2 177.01-9.98 177.94-8.75 177.94-6.65L177.94-6.65Q177.94-4.55 176.74-2.9 175.54-1.25 173.46-0.33 171.39 0.6 168.74 0.6ZM184.78 10.9L184.78 10.9Q183.33 10.9 182.06 10.25 180.78 9.6 180.03 8.53 179.28 7.45 179.28 6.2L179.28 6.2Q179.33 4.85 179.86 4.13 180.38 3.4 181.03 3.13 181.68 2.85 182.13 2.8 182.58 2.75 182.48 2.75L182.48 2.75Q183.43 2.75 183.93 3.13 184.43 3.5 184.43 3.75L184.43 3.75Q184.43 3.85 184.06 4.23 183.68 4.6 183.63 5.55L183.63 5.55Q183.58 6.45 184.18 7.3 184.78 8.15 186.03 8.15L186.03 8.15Q187.43 8.15 188.58 7.13 189.73 6.1 190.63 4.6 191.53 3.1 192.18 1.7L192.18 1.7Q192.53 0.6 192.13-0.6L192.13-0.6Q190.93-3.3 189.78-6.35 188.63-9.4 187.56-12.25 186.48-15.1 185.43-17.25L185.43-17.25Q184.63-19.1 183.88-19.88 183.13-20.65 181.63-20.85L181.63-20.85Q180.98-20.95 180.76-21.05 180.53-21.15 180.48-21.8L180.48-21.8Q180.43-22.65 180.96-22.73 181.48-22.8 182.23-22.85L182.23-22.85Q185.33-23 187.08-21.95 188.83-20.9 189.93-18.4L189.93-18.4Q190.63-16.85 191.48-14.55 192.33-12.25 193.28-9.9 194.23-7.55 195.13-5.65L195.13-5.65 195.28-5.65 200.18-18.75Q200.68-20.2 200.23-20.55 199.78-20.9 198.28-20.9L198.28-20.9Q197.83-20.9 197.53-20.98 197.23-21.05 197.18-21.8L197.18-21.8Q197.18-22.1 197.36-22.45 197.53-22.8 197.88-22.8L197.88-22.8Q199.33-22.75 200.38-22.7 201.43-22.65 202.73-22.65L202.73-22.65Q203.63-22.65 204.18-22.68 204.73-22.7 205.33-22.73 205.93-22.75 206.88-22.8L206.88-22.8Q207.28-22.8 207.46-22.45 207.63-22.1 207.63-21.8L207.63-21.8Q207.58-21.05 207.26-20.98 206.93-20.9 206.53-20.9L206.53-20.9Q204.88-20.9 203.91-20.3 202.93-19.7 202.23-17.95L202.23-17.95Q202.23-17.95 201.71-16.65 201.18-15.35 200.33-13.25 199.48-11.15 198.53-8.83 197.58-6.5 196.73-4.4 195.88-2.3 195.33-0.95 194.78 0.4 194.73 0.5L194.73 0.5Q194.08 2.05 193.16 3.88 192.23 5.7 191.01 7.28 189.78 8.85 188.23 9.88 186.68 10.9 184.78 10.9Z" opacity="1" transform="matrix(1,0,0,1,0,0)" fill="#1e3a8a" class="wordmark-text-0" data-fill-palette-color="quaternary" id="text-0"></path></svg></g></svg></g></svg></g></svg></g><g></g></svg></g><defs></defs></svg><rect width="356.12052" height="112.28765129526123" fill="none" stroke="none" visibility="hidden"></rect></g></svg></g></svg>